<svg width="1028" height="818" viewBox="0 0 1028 818" fill="none" xmlns="http://www.w3.org/2000/svg">
<path fill-rule="evenodd" clip-rule="evenodd" d="M561.927 2.40009C556.858 3.7151 540.271 10.6641 525.064 17.8391C457.542 49.7095 374.765 58.9864 293.29 43.8125C260.711 37.745 251.49 38.2402 249.352 46.1713C248.773 48.3164 261.441 75.0356 277.503 105.548C293.563 136.06 312.158 171.888 318.824 185.167L330.945 209.31H512.64H694.334L702.065 194.413C706.315 186.219 710.725 178.13 711.864 176.435C712.999 174.74 715.248 170.579 716.859 167.189C718.47 163.798 733.21 135.244 749.615 103.738C766.017 72.2289 779.441 44.8337 779.441 42.8612C779.441 40.8886 776.882 38.0901 773.756 36.6436C769.059 34.4718 761.442 35.1417 729.877 40.5024C685.382 48.0595 674.938 48.4191 658.846 42.9516C649.832 39.888 645.655 36.3313 641.327 28.0365C634.757 15.4412 622.407 7.15671 603.704 2.80076C588.25 -0.797013 574.753 -0.926458 561.927 2.40009ZM340.87 230.245C331.299 235.97 331.237 245.115 340.726 250.404C347.882 254.392 353.014 254.513 514 254.513C674.986 254.513 680.118 254.392 687.274 250.404C696.763 245.115 696.701 235.97 687.13 230.245L679.613 225.748H514H348.387L340.87 230.245ZM300.615 283.219C176.536 334.492 76.0193 421.519 24.0704 522.651C4.28398 561.168 -0.210108 580.162 0.00740592 624.359C0.2028 664.242 0.748477 667.458 10.3117 684.896C55.9085 768.058 173.171 805.741 416.513 815.435C567.037 821.433 718.437 813.837 816.307 795.379C924.556 774.966 987.126 740.636 1017.69 684.896C1027.25 667.458 1027.8 664.242 1027.99 624.359C1028.21 580.162 1023.72 561.168 1003.93 522.651C951.981 421.519 851.464 334.492 727.385 283.219L697.696 270.951H514H330.304L300.615 283.219ZM540.518 365.981L541.65 374.713L569.3 377.09C641.238 383.279 685.01 400.571 705.818 431.024C709.991 437.133 712.089 442.81 710.478 443.64C708.867 444.47 689.301 446.699 666.997 448.596C644.693 450.492 618.48 452.907 608.751 453.959C599.018 455.013 589.639 455.874 587.903 455.874C586.17 455.874 579.763 450.948 573.669 444.93C564.264 435.643 548.994 427.108 541.779 427.108C540.695 427.108 539.807 439.157 539.807 453.883C539.807 473.511 541.038 480.871 544.415 481.45C653.117 500.109 686.33 510.654 710.179 534.075C724.133 547.782 728.992 560.616 727.105 578.79C724.181 606.943 698.194 630.825 652.516 647.338C628.456 656.036 590.701 663.381 569.835 663.427C540.518 663.486 539.807 663.955 539.807 683.158V700.382H514.144H488.481L487.415 682.404L486.35 664.425L464.23 663.028C400.786 659.019 343.274 639.089 319.388 612.836C308.081 600.407 298.311 581.391 302.248 579.48C304.147 578.559 333.076 576.203 366.533 574.243C399.99 572.282 430.036 570.252 433.306 569.732C437.896 569.001 440.713 571.711 445.708 581.676C450.582 591.393 455.736 596.462 466.652 602.271C474.615 606.509 482.719 609.976 484.661 609.976C486.763 609.976 488.193 596.854 488.193 577.567V545.16L451.032 538.511C396.395 528.737 376.767 522.916 356.273 510.42C334.337 497.043 326.673 488.457 321.887 471.894C307.605 422.468 367.982 382.796 466.995 376.548L488.193 375.21V366.229V357.248H513.79H539.383L540.518 365.981ZM468.956 431.741C447.127 441.789 448.112 460.554 470.87 468.288C477.354 470.493 483.906 472.299 485.428 472.303C486.951 472.307 488.193 462.14 488.193 449.709C488.193 424.989 486.685 423.58 468.956 431.741ZM539.807 583.143C539.807 598.899 541.123 612.242 542.734 612.797C548.227 614.687 575.11 606.468 585.12 599.838C597.286 591.781 598.543 579.24 588.143 569.732C582.001 564.119 553.827 554.499 543.534 554.499C541.2 554.499 539.807 565.21 539.807 583.143Z" fill="#EB5757"/>
</svg>
