<svg width="247" height="230" viewBox="0 0 247 230" fill="none" xmlns="http://www.w3.org/2000/svg">
<path d="M123.398 196.678C176.253 196.678 219.1 194.346 219.1 191.47C219.1 188.595 176.253 186.263 123.398 186.263C70.5428 186.263 27.6954 188.595 27.6954 191.47C27.6954 194.346 70.5428 196.678 123.398 196.678Z" fill="#F5F5F5"/>
<path d="M95.4557 55.039C91.6107 57.9922 87.8544 62.7532 90.0559 67.919C92.2573 73.0848 106.344 73.6046 109.306 71.4794C113.156 68.7194 109.755 56.4282 106.754 56.3546C106.527 51.796 98.669 52.5688 95.4557 55.039Z" fill="#263238"/>
<path d="M90.0706 104.788C90.0706 104.788 91.6155 130.98 93.3184 145.162C93.4911 158.479 96.7735 188.563 96.7735 188.563H100.382C100.989 173.636 105.446 159.698 102.484 146.533C109.395 120.681 104.661 104.806 104.661 104.806L90.0706 104.788Z" fill="#FFB573"/>
<path d="M93.9995 104.806C93.9995 104.806 101.428 133.86 103.462 146.234C105.604 159.234 108.792 184.46 108.644 188.554H111.759C111.759 188.554 116.991 163.033 112.149 146.694C116.142 109.894 106.29 104.834 106.29 104.834L93.9995 104.806Z" fill="#FFB573"/>
<path d="M76.186 71.2034C75.954 69.6348 72.8641 69.5014 72.8641 69.5014L71.3834 68.8068C71.1234 68.6585 70.8118 68.6101 70.5143 68.6719C70.2169 68.7337 69.9568 68.9009 69.7891 69.138L69.2955 69.9016C69.1517 70.2022 69.1279 70.5407 69.2284 70.8561C69.3288 71.1716 69.5469 71.4432 69.8434 71.622L70.2925 71.9256C71.0567 72.4346 71.9608 72.7298 72.8987 72.7766L74.2659 72.8456C74.5662 72.8617 74.8671 72.8274 75.1544 72.7444C75.4946 72.6447 75.7847 72.4339 75.9715 72.1508C76.1583 71.8677 76.2292 71.5313 76.1712 71.2034H76.186Z" fill="#FFB573"/>
<path d="M92.4596 80.3804C92.2721 80.5598 92.1734 80.6472 92.0352 80.7622L91.6452 81.0842C91.3885 81.2866 91.122 81.4752 90.8604 81.6638C90.3273 82.0318 89.7844 82.3722 89.2266 82.6942C88.1073 83.322 86.9314 83.8576 85.7122 84.295C83.2841 85.1753 80.7063 85.6427 78.1011 85.675H77.874C77.7551 85.6726 77.6364 85.6634 77.5186 85.6474C77.2868 85.6158 77.0598 85.5586 76.8424 85.4772C76.4764 85.3366 76.1417 85.1338 75.8552 84.8792C75.4843 84.5396 75.1817 84.1407 74.9618 83.7016C74.654 83.0796 74.4238 82.4267 74.2758 81.7558C74.014 80.6011 73.849 79.4291 73.7822 78.2506C73.6485 75.9933 73.698 73.7297 73.9302 71.4794C73.9577 71.2279 74.0835 70.9946 74.2835 70.8238C74.4836 70.6531 74.744 70.5569 75.0153 70.5535C75.2865 70.5501 75.5496 70.6397 75.7546 70.8054C75.9595 70.971 76.092 71.2011 76.1267 71.4518V71.4794C76.3933 73.623 76.6993 75.7988 77.1139 77.8826C77.2967 78.8918 77.5489 79.889 77.8691 80.868C77.9966 81.2684 78.1721 81.6542 78.3923 82.018C78.4812 82.1514 78.57 82.2158 78.5305 82.1698C78.4652 82.1039 78.384 82.0534 78.2936 82.0226C78.2136 81.9887 78.1288 81.9655 78.0419 81.9536H77.9086C78.9697 81.8633 80.0222 81.7003 81.0577 81.466C82.0838 81.2272 83.09 80.9197 84.0686 80.546C85.0431 80.1572 85.9824 79.6957 86.8771 79.166C87.3263 78.9084 87.7607 78.637 88.1802 78.3472C88.3875 78.2046 88.5849 78.0574 88.7824 77.9102L89.0687 77.6894L89.2859 77.51L89.4142 77.4042C89.8446 77.0449 90.4086 76.8565 90.986 76.8791C91.5633 76.9018 92.1084 77.1337 92.5049 77.5254C92.9014 77.9172 93.1181 78.4378 93.1087 78.9762C93.0993 79.5147 92.8647 80.0284 92.4547 80.408L92.4596 80.3804Z" fill="#FFB573"/>
<path d="M94.8881 75.2744C90.9838 74.6672 86.887 77.142 84.7645 79.1568C83.6687 82.2296 87.1782 85.9648 87.1782 85.9648C87.1782 85.9648 92.1783 83.1036 93.9799 81.1486C95.7815 79.1936 97.1389 75.624 94.8881 75.2744Z" fill="#E0E0E0"/>
<path d="M106.981 104.457C106.981 104.457 112.489 108.1 113.526 120.212C113.941 124.982 114.686 144.012 116.256 152.2C110.604 155.963 93.6837 155.448 91.0331 153.249C91.7833 136.689 84.9915 114.724 89.9176 104.622C98.0717 103.689 106.981 104.457 106.981 104.457Z" fill="#263238"/>
<path opacity="0.2" d="M101.394 139.191C101.468 132.232 100.367 122.654 97.0254 116.978C98.1656 124.062 101.394 139.191 101.394 139.191Z" fill="black"/>
<path d="M87.3311 80.8864C87.3311 84.8286 83.9599 86.8986 87.7754 89.9346C88.0024 93.3386 88.269 99.4336 89.3894 104.986C90.5493 106.49 99.0292 106.366 107.84 104.586C106.69 99.8246 107.114 92.069 110.13 81.4614C110.291 80.8727 110.319 80.2595 110.214 79.66C110.108 79.0606 109.871 78.488 109.517 77.978C109.163 77.468 108.7 77.0316 108.156 76.6962C107.613 76.3608 107.001 76.1336 106.359 76.0288C105.633 75.9092 104.878 75.7988 104.079 75.7068C101.323 75.3282 98.542 75.1345 95.7567 75.1272C94.8584 75.1272 93.9255 75.1824 93.037 75.2376C91.4935 75.3265 90.0444 75.9601 88.9844 77.0095C87.9244 78.0589 87.3332 79.4452 87.3311 80.8864Z" fill="#E0E0E0"/>
<path d="M105.331 87.731L94.9902 89.9134C94.5967 89.9964 94.3499 90.361 94.4391 90.7277L97.787 104.505C97.8761 104.872 98.2673 105.102 98.6608 105.019L109.001 102.837C109.395 102.754 109.642 102.389 109.552 102.022L106.205 88.2446C106.115 87.8779 105.724 87.648 105.331 87.731Z" fill="#FF4040"/>
<path d="M96.7786 80.2102C96.7786 80.2102 95.1053 82.0778 93.7233 82.5102L93.5653 83.4302C95.3129 83.2222 96.926 82.4469 98.1211 81.2406L96.7786 80.2102Z" fill="#FF4040"/>
<path d="M92.2327 79.0832C92.2327 79.0832 92.1636 81.512 92.8842 82.6988L92.3462 83.49C91.1826 82.2559 90.5221 80.6796 90.4804 79.0372L92.2327 79.0832Z" fill="#FF4040"/>
<path d="M103.738 66.9576C103.077 69.4048 102.302 73.9174 104.079 75.6976C104.079 75.6976 97.4597 77.3812 93.1457 82.9012C91.1713 77.1006 95.7765 75.118 95.7765 75.118C98.7924 74.658 98.8319 72.6064 98.4173 70.6376L103.738 66.9576Z" fill="#FFB573"/>
<path opacity="0.2" d="M101.571 68.4618L98.4222 70.6468C98.524 71.1012 98.5834 71.5629 98.5999 72.0268C99.745 71.9532 101.374 70.8998 101.561 69.8004C101.648 69.3581 101.651 68.9052 101.571 68.4618V68.4618Z" fill="black"/>
<path d="M106.808 62.5968C105.54 66.562 105.095 68.2686 102.425 69.828C98.4073 72.1694 93.5405 69.759 93.5109 65.4994C93.5109 61.663 95.5691 55.8394 100.145 55.2046C104.72 54.5698 108.096 58.627 106.808 62.5968Z" fill="#FFB573"/>
<path d="M103.492 56.8054C102.292 60.628 103.319 64.6254 105.767 65.0854C109.168 63.9032 109 60.3842 108.131 58.7742C107.263 57.1642 104.183 54.602 103.492 56.8054Z" fill="#263238"/>
<path d="M105.352 63.6732C103.462 64.2574 103.096 65.4396 103.096 65.4396C103.096 65.4396 104.394 64.584 105.638 64.745C105.458 64.4122 105.36 64.0459 105.352 63.6732Z" fill="#263238"/>
<path d="M100.628 62.2242C100.544 62.5508 100.293 62.7716 100.061 62.721C99.8288 62.6704 99.7054 62.353 99.7893 62.0264C99.8732 61.6998 100.125 61.4744 100.357 61.5296C100.589 61.5848 100.693 61.8976 100.628 62.2242Z" fill="#263238"/>
<path d="M96.2504 61.2536C96.1665 61.5802 95.9147 61.801 95.6827 61.7458C95.4507 61.6906 95.3273 61.3824 95.4112 61.0512C95.4952 60.72 95.7469 60.5038 95.9789 60.559C96.2109 60.6142 96.3392 60.9224 96.2504 61.2536Z" fill="#263238"/>
<path d="M96.0875 60.6004L95.2928 60.1726C95.2928 60.1726 95.5742 60.8902 96.0875 60.6004Z" fill="#263238"/>
<path d="M97.0796 61.7872C96.5779 62.4608 95.9763 63.0648 95.2928 63.5812C95.4429 63.7433 95.6285 63.8735 95.8371 63.9632C96.0457 64.0528 96.2724 64.0998 96.5021 64.101L97.0796 61.7872Z" fill="#ED893E"/>
<path d="M106.833 66.5758C106.572 66.8618 106.247 67.092 105.882 67.2507C105.516 67.4095 105.119 67.4931 104.716 67.4958C103.684 67.4682 103.506 66.3642 104.074 65.458C104.567 64.6392 105.732 63.6686 106.631 64.1332C107.529 64.5978 107.534 65.8306 106.833 66.5758Z" fill="#FFB573"/>
<path d="M101.453 60.8166C101.4 60.792 101.359 60.7491 101.339 60.697C101.26 60.4564 101.123 60.236 100.938 60.0526C100.753 59.8692 100.526 59.7277 100.273 59.639C100.218 59.6249 100.172 59.5916 100.143 59.546C100.115 59.5005 100.106 59.4464 100.12 59.3952C100.126 59.3699 100.138 59.3461 100.155 59.3253C100.171 59.3045 100.192 59.287 100.216 59.2741C100.24 59.2611 100.267 59.2529 100.295 59.25C100.322 59.2471 100.35 59.2496 100.377 59.2572C100.7 59.362 100.992 59.536 101.229 59.7654C101.467 59.9947 101.643 60.2728 101.744 60.5774C101.754 60.6018 101.758 60.6278 101.757 60.6539C101.756 60.68 101.748 60.7055 101.736 60.7288C101.723 60.7522 101.706 60.7728 101.684 60.7895C101.663 60.8062 101.638 60.8186 101.611 60.8258C101.559 60.8413 101.502 60.838 101.453 60.8166V60.8166Z" fill="#263238"/>
<path d="M94.6611 59.294C94.6051 59.2957 94.5504 59.2776 94.5081 59.2434C94.4692 59.2057 94.4474 59.1554 94.4474 59.1031C94.4474 59.0508 94.4692 59.0005 94.5081 58.9628C94.7282 58.7256 95.0064 58.5416 95.3193 58.4262C95.6321 58.3109 95.9702 58.2677 96.3048 58.3004C96.3611 58.3094 96.4116 58.3384 96.4456 58.3812C96.4796 58.4241 96.4946 58.4775 96.4874 58.5304C96.4789 58.5822 96.4486 58.6288 96.4033 58.6599C96.3579 58.6909 96.3012 58.7039 96.2455 58.696C95.9807 58.6714 95.7134 58.7071 95.4667 58.8001C95.2199 58.893 95.0011 59.0404 94.8289 59.2296C94.8076 59.251 94.7816 59.2678 94.7526 59.2789C94.7236 59.29 94.6924 59.2952 94.6611 59.294V59.294Z" fill="#263238"/>
<path d="M100.456 61.5756L99.6613 61.1432C99.6613 61.1432 99.9426 61.8654 100.456 61.5756Z" fill="#263238"/>
<path d="M100.199 94.2356L96.2502 93.5226L96.6945 97.75C96.6945 97.75 99.656 97.6304 101.344 96.37L101.502 95.818C101.319 94.9026 101.097 94.5668 100.199 94.2356Z" fill="#FFB573"/>
<path d="M93.8763 95.3258L94.3353 97.1152C94.4024 97.3722 94.5704 97.5964 94.8061 97.7437C95.0418 97.891 95.3282 97.9507 95.6088 97.911L96.7144 97.75L96.2702 93.5226L94.587 94.093C94.3271 94.1817 94.1112 94.3563 93.9802 94.5835C93.8492 94.8107 93.8122 95.0748 93.8763 95.3258V95.3258Z" fill="#FFB573"/>
<path d="M109.029 79.12C110.229 81.2614 111.276 83.4742 112.164 85.744C112.608 86.8802 113.027 88.044 113.363 89.2354C113.729 90.4698 113.977 91.7321 114.103 93.0074C114.133 93.3432 114.148 93.6882 114.153 94.0378V94.162V94.3598C114.141 94.4953 114.114 94.6294 114.074 94.76C114.001 95.0136 113.888 95.2555 113.738 95.4776C113.509 95.8082 113.21 96.0916 112.86 96.3102C112.43 96.5763 111.957 96.7737 111.458 96.8944C111.08 96.9917 110.696 97.067 110.308 97.1198C108.962 97.2775 107.605 97.3252 106.25 97.2624C103.683 97.152 101.127 96.866 98.6046 96.4068C98.3314 96.3646 98.0852 96.228 97.9153 96.0242C97.7453 95.8203 97.6641 95.5643 97.6877 95.3071C97.7114 95.0499 97.8383 94.8105 98.043 94.6366C98.2477 94.4627 98.5152 94.3672 98.7922 94.369V94.369C101.26 94.3276 103.758 94.2678 106.162 94.0976C107.312 94.0233 108.456 93.8695 109.582 93.6376C109.812 93.588 110.038 93.5235 110.258 93.4444C110.367 93.4162 110.469 93.366 110.554 93.2972C110.46 93.3494 110.381 93.424 110.327 93.5134C110.262 93.6103 110.212 93.7157 110.179 93.8262C110.162 93.8882 110.149 93.9512 110.14 94.0148C110.137 94.0454 110.137 94.0762 110.14 94.1068V94.1068C110.14 93.8722 110.095 93.6468 110.056 93.3892C109.624 91.2572 108.951 89.174 108.047 87.1746C107.154 85.1 106.132 82.9886 105.085 80.9968V80.96C104.873 80.4786 104.864 79.9405 105.058 79.4526C105.252 78.9648 105.637 78.5632 106.135 78.3277C106.633 78.0922 107.208 78.0401 107.745 78.1818C108.282 78.3235 108.743 78.6486 109.034 79.0924L109.029 79.12Z" fill="#FFB573"/>
<path d="M106.616 76.1714C109.444 76.659 110.703 79.028 112.756 83.7568C112.129 86.94 107.109 88.6144 107.109 88.6144C107.109 88.6144 104.227 83.8534 103.654 81.328C103.082 78.8026 103.763 75.6792 106.616 76.1714Z" fill="#E0E0E0"/>
<path d="M100.638 188.6C100.615 188.539 100.57 188.487 100.511 188.452C100.452 188.418 100.382 188.404 100.313 188.411L96.9661 188.365C96.6237 188.344 96.2817 188.413 95.9789 188.563C94.4469 189.455 92.7261 190.028 90.9344 190.242C90.2236 190.343 90.5445 191.461 92.2227 191.48C94.9917 191.507 95.4952 191.314 97.8595 191.337C99.8783 191.36 98.9158 191.443 100.52 191.48C100.905 191.48 101.221 191.254 101.172 191.02L100.638 188.6Z" fill="#263238"/>
<path d="M112.184 188.6C112.16 188.539 112.115 188.488 112.056 188.453C111.997 188.419 111.927 188.404 111.858 188.411L109.128 188.365C108.786 188.343 108.443 188.411 108.141 188.563C107.154 189.203 107.292 189.943 105.041 190.242C104.331 190.343 104.681 191.461 106.359 191.48C109.128 191.507 108.96 191.337 110.086 191.337C111.211 191.337 110.52 191.443 112.129 191.48C112.514 191.48 112.825 191.254 112.766 191.02L112.184 188.6Z" fill="#263238"/>
<path d="M94.9572 80.9186C96.359 80.9738 98.9306 82.0456 99.7549 83.191C100.92 82.064 105.471 79.4466 105.55 75.9C104.993 75.4008 104.291 75.0649 103.531 74.934C103.531 74.934 97.4597 77.671 94.9572 80.9186Z" fill="#FAFAFA"/>
<path d="M92.6867 80.7346C92.6867 80.7346 92.3066 77.8688 96.0283 75.0858C95.6532 74.8006 94.1823 75.1226 94.1823 75.1226C94.1823 75.1226 89.8337 76.866 89.9621 81.3786C90.7457 80.8416 91.7232 80.6106 92.6867 80.7346V80.7346Z" fill="#FAFAFA"/>
<path d="M92.1338 81.949C91.5958 82.1836 91.3835 83.8166 92.1338 84.1984C92.884 84.5802 92.81 83.0208 93.2444 82.4872C93.6787 81.9536 93.0765 81.5396 92.1338 81.949Z" fill="#FF4040"/>
<path d="M92.7953 82.5838C92.4103 83.0438 92.9088 84.6078 93.7381 84.6032C94.5673 84.5986 93.8516 83.2232 94.0145 82.5424C94.1774 81.8616 93.4518 81.7742 92.7953 82.5838Z" fill="#FF4040"/>
<path d="M92.9089 83.7476C91.9859 82.4182 91.9217 89.424 94.1577 92.184C94.0096 89.4654 95.5743 85.6106 92.9089 83.7476Z" fill="#FF4040"/>
<path d="M92.8248 83.6878C92.4152 82.3354 90.3569 88.2602 91.4971 91.1536C92.1437 88.8122 94.5574 85.9234 92.8248 83.6878Z" fill="#FF4040"/>
<path d="M99.7057 65.366C99.9208 65.2787 100.127 65.174 100.323 65.0532C100.334 65.0429 100.343 65.0307 100.349 65.0173C100.354 65.0039 100.358 64.9895 100.358 64.975C100.358 64.9604 100.354 64.946 100.349 64.9326C100.343 64.9192 100.334 64.907 100.323 64.8968C100.302 64.8723 100.273 64.8559 100.24 64.8508C100.207 64.8456 100.173 64.8522 100.145 64.8692C99.7049 65.1442 99.2041 65.3238 98.6796 65.3947C98.1551 65.4655 97.6202 65.4259 97.1144 65.2786C97.0995 65.2725 97.0834 65.2692 97.0672 65.2689C97.0509 65.2686 97.0347 65.2713 97.0196 65.2769C97.0044 65.2824 96.9906 65.2907 96.979 65.3013C96.9673 65.3118 96.9579 65.3244 96.9515 65.3384C96.9404 65.367 96.9419 65.3986 96.9558 65.4262C96.9697 65.4538 96.9948 65.4752 97.0255 65.4856C97.9042 65.755 98.8587 65.7124 99.7057 65.366V65.366Z" fill="#263238"/>
<path d="M85.3815 68.609H60.1639V69.3726H85.3815V68.609Z" fill="#FF4040"/>
<path d="M84.7793 69.3726H60.7661L61.8224 69.9062H83.723L84.7793 69.3726Z" fill="#FF4040"/>
<path opacity="0.2" d="M84.7793 69.3726H60.7661L61.8224 69.9062H83.723L84.7793 69.3726Z" fill="black"/>
<path d="M68.244 48.1528C68.0965 48.1516 67.9554 48.0965 67.8511 47.9992C67.7467 47.902 67.6876 47.7705 67.6863 47.633V45.8896C67.6876 45.7521 67.7467 45.6206 67.8511 45.5234C67.9554 45.4262 68.0965 45.371 68.244 45.3698V45.3698C68.3915 45.371 68.5327 45.4262 68.637 45.5234C68.7413 45.6206 68.8005 45.7521 68.8018 45.8896V47.633C68.8005 47.7705 68.7413 47.902 68.637 47.9992C68.5327 48.0965 68.3915 48.1516 68.244 48.1528V48.1528Z" fill="#263238"/>
<path d="M69.1425 45.7838V45.5538C69.1425 45.3302 68.948 45.149 68.7081 45.149H67.7801C67.5402 45.149 67.3458 45.3302 67.3458 45.5538V45.7838C67.3458 46.0073 67.5402 46.1886 67.7801 46.1886H68.7081C68.948 46.1886 69.1425 46.0073 69.1425 45.7838Z" fill="#263238"/>
<path d="M69.1375 51.9386V46.966C69.1375 46.9119 69.1148 46.8599 69.0742 46.8212C69.0336 46.7825 68.9784 46.7602 68.9203 46.759H67.5679C67.5098 46.7602 67.4546 46.7825 67.414 46.8212C67.3734 46.8599 67.3507 46.9119 67.3507 46.966V51.9386C67.3509 52.3123 67.266 52.6818 67.1018 53.0227C66.9376 53.3637 66.6978 53.6683 66.3981 53.9166C66.0994 54.1667 65.8604 54.4723 65.6963 54.8138C65.5322 55.1553 65.4467 55.525 65.4454 55.8992V68.655H71.0378V55.8992C71.0374 55.5249 70.9524 55.1549 70.7883 54.8133C70.6241 54.4716 70.3845 54.1661 70.0852 53.9166V53.9166C69.7869 53.6675 69.5483 53.3626 69.385 53.0218C69.2217 52.6809 69.1373 52.3118 69.1375 51.9386V51.9386Z" fill="#FF4040"/>
<path d="M71.0378 57.408H67.3457V65.6558H71.0378V57.408Z" fill="#E0E0E0"/>
<path d="M76.2796 68.609H75.6133C75.8352 68.6229 76.0578 68.6229 76.2796 68.609Z" fill="#FF4040"/>
<path d="M80.3025 68.609H79.6312C79.8547 68.6229 80.079 68.6229 80.3025 68.609Z" fill="#FF4040"/>
<path opacity="0.2" d="M75.3862 58.88V60.973C75.3862 62.6382 76.403 64.0228 77.6913 64.193V67.873C77.6913 68.4388 77.099 68.5998 76.64 68.6366H79.2708C78.8118 68.5998 78.2194 68.4388 78.2194 67.873V64.193C79.5077 64.0274 80.5245 62.6428 80.5245 60.973V58.88H75.3862Z" fill="#FF4040"/>
<path d="M105.969 56.9112C103.995 57.6932 97.3808 57.9324 94.7894 57.408C97.4696 53.8798 103.491 52.8448 105.969 56.9112Z" fill="#263238"/>
<path d="M112.193 69.5152C112.174 69.5148 112.156 69.5105 112.138 69.5026C112.121 69.4946 112.106 69.4832 112.095 69.4692C112.031 69.3864 110.574 67.39 110.545 62.0448C110.545 59.8138 109.809 58.0198 108.57 57.1136C108.249 56.8657 107.869 56.6916 107.462 56.6054C107.054 56.5191 106.631 56.523 106.226 56.6168C106.21 56.6201 106.194 56.6205 106.178 56.6179C106.161 56.6153 106.146 56.6098 106.132 56.6017C106.119 56.5936 106.107 56.583 106.097 56.5706C106.088 56.5582 106.081 56.5442 106.078 56.5294C106.074 56.5146 106.074 56.4993 106.077 56.4843C106.079 56.4694 106.085 56.4551 106.094 56.4423C106.103 56.4295 106.114 56.4184 106.127 56.4097C106.141 56.4009 106.156 56.3947 106.172 56.3914C106.612 56.2937 107.071 56.2914 107.512 56.3847C107.954 56.478 108.366 56.6644 108.718 56.9296C110.027 57.8818 110.782 59.7448 110.797 62.0402C110.826 67.3026 112.277 69.3174 112.277 69.3358C112.287 69.3482 112.294 69.3621 112.297 69.3769C112.301 69.3917 112.301 69.4071 112.298 69.422C112.296 69.437 112.29 69.4513 112.281 69.4642C112.272 69.477 112.261 69.4881 112.248 69.4968C112.231 69.5064 112.213 69.5127 112.193 69.5152Z" fill="#263238"/>
<path d="M147.712 42.435C149.089 44.1922 149.084 46.9292 148.616 48.415C146.148 47.3708 146.533 44.3716 146.533 44.3716L147.712 42.435Z" fill="#263238"/>
<path d="M155.091 64.1839L156.513 65.6421L157.994 67.1233C158.981 68.1031 159.968 69.0599 160.985 69.9799C161.479 70.4399 161.972 70.8999 162.5 71.3047C163.028 71.7095 163.487 72.1419 164.006 72.5145C164.524 72.8871 164.993 73.2183 165.452 73.5035C165.798 73.7195 166.161 73.9102 166.538 74.0739L165.783 73.9635C165.559 73.9383 165.332 73.9854 165.141 74.0969C165.141 74.0969 165.259 74.0969 165.427 74.0049C165.886 73.7432 166.311 73.4346 166.696 73.0849C167.707 72.1899 168.651 71.2324 169.524 70.2191C170.467 69.1657 171.385 68.0433 172.298 66.9071C173.211 65.7709 174.124 64.6071 175.023 63.4617L175.067 63.4111C175.382 63.0242 175.832 62.7524 176.34 62.643C176.847 62.5336 177.38 62.5936 177.845 62.8124C178.31 63.0313 178.678 63.3952 178.884 63.8408C179.091 64.2864 179.124 64.7854 178.976 65.2511C178.477 66.7049 177.898 68.1342 177.244 69.5337C176.597 70.9137 175.882 72.2937 175.072 73.6737C174.232 75.1089 173.261 76.474 172.17 77.7539C171.519 78.5104 170.784 79.2012 169.978 79.8147C169.444 80.2172 168.859 80.5571 168.236 80.8267C167.321 81.2242 166.318 81.4163 165.309 81.3879C165.123 81.3813 164.937 81.3582 164.756 81.3189L164.549 81.2775C163.467 81.036 162.422 80.673 161.434 80.1965C160.607 79.8038 159.808 79.3629 159.04 78.8763C157.633 77.9935 156.291 77.0238 155.022 75.9737C153.779 74.9663 152.624 73.9129 151.503 72.8411C150.95 72.2983 150.397 71.7555 149.869 71.1943C149.341 70.6331 148.833 70.0857 148.275 69.4463C147.652 68.6037 147.387 67.5762 147.529 66.5619C147.671 65.5476 148.211 64.6182 149.045 63.953C149.879 63.2879 150.948 62.934 152.045 62.9596C153.142 62.9853 154.191 63.3886 154.988 64.0919L155.091 64.1839Z" fill="#E0E0E0"/>
<path d="M177.234 65.9456L181.632 66.1434L180.205 60.6234C180.205 60.6234 176.113 60.904 175.457 62.8636C175.388 63.0821 175.402 63.316 175.496 63.526L176.306 65.3338C176.382 65.5073 176.51 65.6569 176.675 65.7653C176.839 65.8736 177.033 65.9361 177.234 65.9456V65.9456Z" fill="#FF8B7B"/>
<path d="M185.556 62.8682L184.707 61.0282C184.542 60.6716 184.246 60.3809 183.873 60.2074C183.5 60.034 183.073 59.9891 182.668 60.0806L180.2 60.6464L181.627 66.1664L184.588 65.0532C184.808 64.9722 185.009 64.8507 185.178 64.6959C185.346 64.5411 185.48 64.3562 185.57 64.1522C185.66 63.9483 185.706 63.7295 185.703 63.5089C185.701 63.2883 185.651 63.0704 185.556 62.8682V62.8682Z" fill="#FF8B7B"/>
<path d="M144.691 142.388C140.022 123.248 137.134 100.17 137.134 100.17L156.281 99.8844C156.281 99.8844 156.014 130.985 156.054 144.012C156.103 157.559 157.11 187.372 157.11 187.372H151.3C151.3 187.372 143.803 159.132 144.691 142.388Z" fill="#263238"/>
<path d="M143.201 115.98L140.17 120.166C141.073 125.391 142.144 131.146 143.393 136.786C143.916 128.119 143.828 118.05 143.201 115.98Z" fill="black"/>
<path d="M164.86 190.026C164.86 190.026 156.859 188.269 156.256 187.087H151.814L151.844 191.47H154.588L155.008 191.066L155.704 191.47C157.925 191.47 163.828 191.388 165.225 190.923C165.253 190.757 165.234 190.587 165.17 190.43C165.106 190.272 164.999 190.133 164.86 190.026V190.026Z" fill="#263238"/>
<path d="M126.883 141.85C129.099 122.599 129.03 109.738 131.73 100.252L149.163 100.009C149.163 100.009 141.903 130.543 138.531 143.249C135.16 155.954 129.39 187.363 129.39 187.363H124.01C124.01 187.363 122.317 156.736 126.883 141.85Z" fill="#263238"/>
<path d="M130.348 104.001C129.963 106.301 128.591 119.908 127.169 124.862C138.793 129.669 156.563 127.779 157.11 124.66C156.948 118.882 156.617 104.001 156.617 104.001H130.348Z" fill="#E0E0E0"/>
<path opacity="0.1" d="M130.995 106.527C131.806 107.753 132.787 108.874 133.912 109.862C133.912 109.862 131.404 109.443 130.995 106.527Z" fill="black"/>
<path opacity="0.1" d="M154.361 109.733C155.027 108.807 155.568 107.807 155.97 106.757C155.97 106.757 156.083 109.107 154.361 109.733Z" fill="black"/>
<path opacity="0.1" d="M131.103 108.261C131.371 109.182 131.768 110.067 132.283 110.892C131.813 110.626 131.446 110.228 131.234 109.755C131.022 109.283 130.976 108.76 131.103 108.261V108.261Z" fill="black"/>
<path d="M134.405 190.026C134.405 190.026 129.415 188.269 128.842 187.087H124.4L124.311 191.47H127.949L128.378 191.066L129.064 191.47C131.285 191.47 133.334 191.388 134.745 190.923C134.779 190.759 134.765 190.589 134.705 190.432C134.646 190.274 134.542 190.134 134.405 190.026V190.026Z" fill="#263238"/>
<path d="M131.088 61.847C137.248 61.134 146.044 61.203 151.942 62.1506C153.416 62.3996 154.769 63.0742 155.808 64.0788C156.848 65.0834 157.523 66.3673 157.737 67.7488C158.976 76.0518 157.91 90.5602 157.12 105.165C143.645 109.462 129.43 105.105 129.43 105.105C128.936 102.161 130.042 92.506 130.782 87.354C129.671 82.0318 127.327 75.9368 125.757 68.8666C125.567 68.0757 125.556 67.2563 125.727 66.4615C125.898 65.6666 126.246 64.914 126.748 64.2524C127.251 63.5907 127.897 63.0347 128.644 62.6204C129.392 62.206 130.224 61.9426 131.088 61.847V61.847Z" fill="#263238"/>
<path opacity="0.1" d="M131.088 61.847C137.248 61.134 146.044 61.203 151.942 62.1506C153.416 62.3996 154.769 63.0742 155.808 64.0788C156.848 65.0834 157.523 66.3673 157.737 67.7488C158.976 76.0518 157.91 90.5602 157.12 105.165C143.645 109.462 129.43 105.105 129.43 105.105C128.936 102.161 130.042 92.506 130.782 87.354C129.671 82.0318 127.327 75.9368 125.757 68.8666C125.567 68.0757 125.556 67.2563 125.727 66.4615C125.898 65.6666 126.246 64.914 126.748 64.2524C127.251 63.5907 127.897 63.0347 128.644 62.6204C129.392 62.206 130.224 61.9426 131.088 61.847V61.847Z" fill="white"/>
<path d="M137.184 50.8853L144.193 56.2442C143.285 58.4936 142.999 60.8442 146.957 61.732C147.944 62.951 146.464 65.09 144.706 65.9226C140.55 65.0394 138.156 63.9998 136.542 61.9344C137.051 60.3152 137.86 54.2111 137.184 50.8853Z" fill="#FF8B7B"/>
<path opacity="0.2" d="M140.106 53.1208L144.193 56.2397C143.972 56.7597 143.806 57.299 143.7 57.8497C142.115 57.9555 139.914 56.4697 139.815 55.1172C139.779 54.4407 139.878 53.7639 140.106 53.1208V53.1208Z" fill="black"/>
<path d="M136.177 47.2328C136.819 51.3314 136.967 53.7602 139.39 55.683C143.038 58.5764 148.329 56.2212 149.02 52.003C149.637 48.2172 148.487 42.1498 144.01 40.8802C143.017 40.5986 141.963 40.5569 140.948 40.7589C139.933 40.961 138.989 41.4002 138.206 42.0353C137.423 42.6704 136.826 43.4805 136.471 44.3897C136.116 45.2989 136.015 46.2772 136.177 47.2328Z" fill="#FF8B7B"/>
<path d="M136.138 49.1234C136.589 49.5798 137.173 49.9047 137.819 50.059C138.464 50.2132 139.144 50.1902 139.775 49.9928C138.719 48.9946 139.746 45.3422 138.689 43.8564C140.733 44.2336 148.69 45.31 149.45 42.7386C150.274 39.9786 146.982 37.7752 145.136 37.5682C145.679 38.7182 145.629 39.5508 143.606 39.1782C141.582 38.8056 133.24 37.0116 134.163 40.6548C131.478 40.6548 131.295 44.298 133.26 46.0414C134.336 46.9686 135.301 48.002 136.138 49.1234V49.1234Z" fill="#263238"/>
<path d="M134.657 40.48C133.048 40.1074 133.551 38.7274 133.911 38.5848C132.406 38.9252 131.858 40.3052 133.674 40.94C135.491 41.5748 134.657 40.48 134.657 40.48Z" fill="#263238"/>
<path d="M134.938 49.749C135.088 50.1981 135.332 50.6151 135.655 50.9759C135.979 51.3367 136.376 51.6342 136.824 51.8512C138.033 52.4262 138.912 51.4786 138.798 50.2918C138.704 49.22 137.969 47.633 136.646 47.5318C136.355 47.5183 136.065 47.573 135.803 47.6909C135.54 47.8088 135.314 47.9861 135.144 48.2067C134.974 48.4272 134.866 48.684 134.83 48.9534C134.794 49.2229 134.831 49.4964 134.938 49.749V49.749Z" fill="#FF8B7B"/>
<path d="M142.352 47.38C142.382 47.7158 142.599 47.9734 142.846 47.955C143.092 47.9366 143.25 47.6422 143.221 47.311C143.191 46.9798 142.974 46.7176 142.727 46.736C142.48 46.7544 142.322 47.0442 142.352 47.38Z" fill="#263238"/>
<path d="M146.656 47.2834C146.686 47.6192 146.903 47.8768 147.15 47.8538C147.397 47.8308 147.55 47.5456 147.52 47.2098C147.49 46.874 147.273 46.621 147.026 46.6394C146.78 46.6578 146.626 46.9476 146.656 47.2834Z" fill="#263238"/>
<path d="M145.782 47.7343C146.301 48.723 146.966 49.6395 147.756 50.4575C147.169 51.0647 146.063 50.9175 146.063 50.9175L145.782 47.7343Z" fill="#FF5652"/>
<path d="M141.686 46.3128C141.652 46.3217 141.616 46.3217 141.582 46.3128C141.556 46.3037 141.531 46.2897 141.511 46.2717C141.491 46.2536 141.474 46.2318 141.463 46.2077C141.452 46.1836 141.447 46.1577 141.447 46.1315C141.447 46.1053 141.452 46.0793 141.463 46.0552C141.582 45.7599 141.774 45.495 142.024 45.2822C142.273 45.0695 142.574 44.9151 142.9 44.8316C142.955 44.8213 143.013 44.8319 143.06 44.8612C143.108 44.8906 143.14 44.9362 143.152 44.988C143.163 45.0399 143.151 45.0937 143.12 45.1377C143.088 45.1817 143.039 45.2123 142.984 45.2226V45.2226C142.725 45.2908 142.488 45.4151 142.292 45.5855C142.095 45.7558 141.945 45.9673 141.853 46.2024C141.838 46.2326 141.814 46.2585 141.785 46.2778C141.755 46.2971 141.721 46.3092 141.686 46.3128V46.3128Z" fill="#263238"/>
<path d="M149.154 45.7793C149.118 45.7795 149.083 45.7711 149.052 45.755C149.021 45.7389 148.995 45.7155 148.976 45.6873C148.845 45.4722 148.66 45.2895 148.438 45.1543C148.215 45.0191 147.962 44.9353 147.698 44.9099C147.67 44.9093 147.642 44.9036 147.617 44.8931C147.591 44.8826 147.568 44.8675 147.549 44.8487C147.53 44.8299 147.515 44.8078 147.505 44.7835C147.494 44.7593 147.49 44.7335 147.49 44.7075C147.493 44.6546 147.518 44.6048 147.559 44.5687C147.601 44.5325 147.656 44.513 147.712 44.5143C148.047 44.5427 148.369 44.6452 148.653 44.8132C148.936 44.9813 149.172 45.21 149.341 45.4803C149.369 45.5251 149.378 45.5783 149.365 45.6288C149.352 45.6794 149.319 45.7233 149.272 45.7517C149.237 45.7736 149.195 45.7834 149.154 45.7793V45.7793Z" fill="#263238"/>
<path d="M136.542 61.9345C136.542 61.9345 143.734 72.1189 146.468 79.3041C149.163 70.8723 149.474 64.1241 146.962 61.7321C146.153 62.6843 142.895 63.9723 136.542 61.9345Z" fill="#E0E0E0"/>
<path d="M134.089 69.46L133.393 71.3001L132.702 73.2137C132.243 74.4879 131.824 75.7667 131.434 77.0225C131.236 77.6527 131.063 78.2783 130.905 78.8947C130.748 79.5111 130.595 80.1229 130.486 80.7071C130.377 81.2913 130.293 81.8571 130.239 82.3631C130.211 82.7505 130.211 83.1394 130.239 83.5269L129.982 82.8553C129.775 82.4919 129.563 82.3953 129.553 82.3953C129.543 82.3953 129.622 82.4873 129.775 82.5885C130.235 82.841 130.723 83.0447 131.231 83.1957C132.544 83.6067 133.884 83.9356 135.244 84.1801C136.69 84.4469 138.181 84.6401 139.686 84.8701C141.192 85.1001 142.742 85.2611 144.232 85.4589H144.302C144.822 85.5283 145.299 85.7672 145.649 86.1333C145.999 86.4994 146.198 86.969 146.211 87.4589C146.225 87.9488 146.052 88.4273 145.723 88.8098C145.395 89.1922 144.931 89.4538 144.415 89.5483C142.807 89.8328 141.184 90.0416 139.553 90.1739C137.924 90.3119 136.281 90.3809 134.617 90.3717C132.863 90.3687 131.113 90.2256 129.385 89.9439C128.371 89.7674 127.378 89.4946 126.424 89.1297C125.788 88.8853 125.187 88.5669 124.637 88.1821C123.826 87.6236 123.166 86.8957 122.712 86.0569C122.628 85.9007 122.56 85.7374 122.509 85.5693L122.455 85.3807C122.167 84.3792 122.01 83.3491 121.986 82.3125C121.962 81.448 121.997 80.583 122.09 79.7227C122.248 78.1509 122.52 76.591 122.904 75.0537C123.255 73.5541 123.699 72.1051 124.178 70.6745C124.425 69.9614 124.671 69.2531 124.948 68.5493C125.224 67.8455 125.501 67.1692 125.841 66.4102C126.287 65.4187 127.128 64.6275 128.189 64.204C129.249 63.7805 130.444 63.7578 131.522 64.1408C132.599 64.5238 133.475 65.2824 133.963 66.2562C134.452 67.23 134.515 68.3427 134.139 69.3588L134.089 69.46Z" fill="#E0E0E0"/>
<path d="M144.933 86.0522L149.297 86.5582L146.888 91.7608C146.888 91.7608 142.905 90.8408 142.618 88.7984C142.59 88.5726 142.648 88.3447 142.781 88.1544L143.907 86.503C144.015 86.3454 144.169 86.2195 144.35 86.1397C144.532 86.06 144.734 86.0297 144.933 86.0522V86.0522Z" fill="#FF8B7B"/>
<path d="M152.569 90.4084L151.394 92.1012C151.167 92.4266 150.822 92.6661 150.423 92.7773C150.024 92.8885 149.595 92.8641 149.213 92.7084L146.888 91.7608L149.297 86.5582L152.016 88.1268C152.215 88.2413 152.388 88.3916 152.523 88.5689C152.659 88.7462 152.756 88.9469 152.807 89.1594C152.859 89.3719 152.864 89.5918 152.823 89.8062C152.782 90.0207 152.696 90.2254 152.569 90.4084V90.4084Z" fill="#FF8B7B"/>
<path d="M136.893 60.3521C135.976 60.4877 135.135 60.9094 134.509 61.5481C136.463 63.9788 139.249 65.7151 142.406 66.47C142.179 65.7662 142.86 63.71 143.611 62.974C140.851 62.5922 136.893 60.3521 136.893 60.3521Z" fill="#FAFAFA"/>
<path d="M144.474 60.605C145.41 60.7636 146.3 61.1037 147.085 61.6032C147.085 61.6032 149.849 64.4782 146.592 66.102C146.814 65.3982 145.111 63.5214 143.586 62.974C146.34 62.5922 144.474 60.605 144.474 60.605Z" fill="#FAFAFA"/>
<path d="M143.892 64.6116C141.71 63.5214 139.01 62.3392 139.76 64.2482C140.511 66.1572 139.519 66.8196 140.496 67.4682C141.473 68.1168 143.457 66.3366 144.114 66.0882C144.77 65.8398 143.892 64.6116 143.892 64.6116Z" fill="#FF4040"/>
<path d="M145.437 64.5978C147.1 63.5536 149.183 62.422 148.813 64.285C148.443 66.148 149.361 66.7966 148.635 67.4268C147.91 68.057 146.044 66.2952 145.452 66.0468C144.859 65.7984 145.437 64.5978 145.437 64.5978Z" fill="#FF4040"/>
<path d="M143.596 64.4644C144.089 64.1884 145.294 63.8388 145.891 64.5886C146.488 65.3384 146.296 66.5942 145.471 66.746C145.177 66.8015 144.872 66.7816 144.588 66.6885C144.305 66.5953 144.054 66.4324 143.862 66.217C144.045 65.9421 144.119 65.616 144.07 65.2957C144.021 64.9753 143.853 64.6811 143.596 64.4644V64.4644Z" fill="#FF4040"/>
<path d="M129.691 187.51L123.704 187.666L123.388 184.506L130.343 184.892L129.691 187.51Z" fill="black"/>
<path d="M157.323 187.501L150.857 187.666L150.141 184.929L157.362 184.276L157.323 187.501Z" fill="black"/>
<path d="M143.23 84.9805C140.207 84.1474 137.089 83.6457 133.941 83.4855C133.27 83.5223 133.013 97.6581 133.067 103.44C133.067 104.222 142.722 104.066 145.19 103.712C145.328 102.097 145.358 90.3119 145.999 86.6273C146.048 86.339 145.992 86.0438 145.84 85.7887C145.688 85.5336 145.449 85.3332 145.16 85.2197C144.549 84.9899 143.885 84.9076 143.23 84.9805V84.9805Z" fill="white"/>
<path d="M193.769 62.353H166.365V63.0798H193.769V62.353Z" fill="#FF4040"/>
<path d="M193.197 63.0798H166.938L167.945 63.5904H192.195L193.197 63.0798Z" fill="#FF4040"/>
<path opacity="0.2" d="M193.197 63.0798H166.938L167.945 63.5904H192.195L193.197 63.0798Z" fill="black"/>
<path d="M181.197 52.0859C181.198 52.2944 181.133 52.4985 181.009 52.6723C180.886 52.8462 180.71 52.9819 180.503 53.0623C180.297 53.1428 180.069 53.1643 179.85 53.1242C179.63 53.0841 179.428 52.9841 179.27 52.837C179.111 52.6898 179.003 52.5021 178.959 52.2977C178.915 52.0932 178.937 51.8812 179.022 51.6884C179.108 51.4957 179.253 51.3309 179.439 51.2149C179.625 51.099 179.843 51.0371 180.067 51.0371C180.215 51.0365 180.362 51.0631 180.499 51.1156C180.636 51.168 180.761 51.2452 180.866 51.3426C180.971 51.4401 181.054 51.5559 181.111 51.6834C181.168 51.811 181.197 51.9477 181.197 52.0859Z" fill="#FF4040"/>
<path d="M191.913 58.9812C191.152 56.7848 189.705 54.85 187.757 53.4244L188.063 53.061C190.09 54.5443 191.596 56.5576 192.387 58.8432L191.913 58.9812Z" fill="#FF4040"/>
<path d="M186.045 52.3664C185.491 52.0818 184.916 51.8373 184.322 51.635L184.49 51.2026C185.107 51.4191 185.706 51.679 186.282 51.98L186.045 52.3664Z" fill="#FF4040"/>
<path d="M180.067 52.0858C177.094 52.0858 174.243 53.1864 172.141 55.1456C170.039 57.1047 168.858 59.7618 168.858 62.5324H191.276C191.276 59.7618 190.095 57.1047 187.993 55.1456C185.891 53.1864 183.04 52.0858 180.067 52.0858V52.0858Z" fill="#FF4040"/>
<path opacity="0.3" d="M170.403 61.5986H173.3C173.4 61.597 173.497 61.5631 173.573 61.5028C173.65 61.4424 173.701 61.3593 173.72 61.2674C174.302 58.4062 176.133 55.913 179.045 53.7464C179.111 53.697 179.158 53.6288 179.179 53.5522C179.2 53.4756 179.193 53.3948 179.16 53.3221C179.127 53.2493 179.07 53.1885 178.997 53.1489C178.923 53.1092 178.838 53.0929 178.754 53.1024C176.552 53.3733 174.504 54.3049 172.92 55.7563C171.336 57.2077 170.301 59.1002 169.973 61.1478C169.965 61.2045 169.971 61.262 169.989 61.3166C170.007 61.3711 170.037 61.4214 170.078 61.4641C170.119 61.5068 170.169 61.5409 170.225 61.5641C170.281 61.5873 170.341 61.5991 170.403 61.5986Z" fill="white"/>
<path d="M144.405 52.1134C144.636 52.1228 144.867 52.112 145.096 52.0812C145.127 52.0756 145.154 52.059 145.171 52.0348C145.189 52.0107 145.196 51.9811 145.19 51.9524C145.182 51.9224 145.162 51.8962 145.135 51.8784C145.108 51.8607 145.075 51.8527 145.042 51.8558C144.526 51.9273 144 51.889 143.502 51.7441C143.005 51.5991 142.549 51.3511 142.169 51.0186C142.158 51.0076 142.145 50.9988 142.13 50.9929C142.115 50.9869 142.099 50.9838 142.083 50.9838C142.067 50.9838 142.05 50.9869 142.036 50.9929C142.021 50.9988 142.007 51.0076 141.996 51.0186C141.975 51.0406 141.963 51.0693 141.963 51.0991C141.963 51.1289 141.975 51.1576 141.996 51.1796C142.649 51.7555 143.506 52.0878 144.405 52.1134V52.1134Z" fill="#263238"/>
</svg>
