<svg width="1028" height="818" viewBox="0 0 1028 818" fill="none" xmlns="http://www.w3.org/2000/svg">
<path fill-rule="evenodd" clip-rule="evenodd" d="M291.299 9.039C320.837 38.773 353.877 52.858 398.278 54.643C415.902 55.351 432.586 54.285 464.278 50.424C496.718 46.473 515.854 45.404 529.589 46.777C547.261 48.544 559.611 52.976 571.08 61.666C578.362 67.183 577.188 64.597 567.97 54.81C550.242 35.988 530.83 27.007 501.278 23.954C487.224 22.502 468.47 23.094 436.278 26.007C371.656 31.854 339.265 28.727 307.114 13.538C302.075 11.157 294.748 7.137 290.833 4.604C286.919 2.072 283.402 0 283.018 0C282.634 0 286.36 4.067 291.299 9.039ZM431.778 63.584C431.778 64.455 440.39 71.751 449.667 78.739C460.171 86.651 478.706 96.338 491.162 100.426C504.84 104.915 517.323 107.04 533.778 107.679C557.02 108.581 572.822 106.737 613.041 98.43C641.798 92.491 661.054 89.306 673.278 88.469C692.238 87.171 710.801 91.083 723.604 99.074C729.626 102.833 729.836 102.89 727.958 100.262C723.764 94.389 709.557 83.413 699.919 78.598C690.092 73.689 682.415 71.325 670.6 69.571C649.842 66.489 635.909 67.539 585.278 76.001C541.123 83.381 531.385 84.359 507.978 83.761C480.937 83.071 462.966 78.748 440.528 67.535C435.716 65.13 431.778 63.352 431.778 63.584ZM707.641 103.659C702.17 104.597 694.415 110.305 691.12 115.82C686.857 122.954 686.093 129.041 688.548 136.313L690.457 141.97L686.868 142.558C659.843 146.99 633.2 158.829 614.031 174.923C595.702 190.312 580.902 218.739 580.8 238.75L580.778 243H712.778H844.778L844.756 238.75C844.719 231.473 841.034 217.34 836.839 208.388C826.535 186.402 808.805 169.363 783.318 156.956C769.767 150.359 759.829 146.967 745.418 144.018C739.995 142.908 735.405 142 735.219 142C735.033 142 735.601 140.313 736.483 138.25C739.86 130.349 738.247 120.456 732.28 112.474C727.754 106.419 716.023 102.222 707.641 103.659ZM461.778 163.5C447.181 172.1 444.492 172.982 439.116 170.939C429.985 167.467 410.106 165.779 398.278 167.471C350.932 174.246 315.858 219.749 321.754 266.75C323.107 277.536 326.401 288.74 330.571 296.741L333.302 301.981L406.787 228.491C457.249 178.025 479.636 155 478.24 155C477.121 155 469.714 158.825 461.778 163.5ZM399.901 245.377C365.597 279.685 337.698 308.241 337.904 308.835C338.68 311.076 347.365 320.688 352.926 325.462C380.669 349.278 420.473 353.746 453.203 336.718C481.27 322.116 499.592 293.724 501.482 261.901C503.185 233.225 490.487 204.382 468.438 186.849C465.776 184.732 463.3 183 462.935 183C462.57 183 434.205 211.07 399.901 245.377ZM580.778 275V288H623.278C649.227 288 665.778 288.367 665.778 288.943C665.778 289.461 664.146 294.524 662.152 300.193C650.508 333.292 631.413 361.541 609.47 378.132C600.338 385.037 582.447 394.066 573.278 396.398C561.939 399.283 549.232 400.15 534.99 399.013C506.746 396.758 480.037 390.731 410.32 370.884C346.846 352.814 316.982 346.894 289.278 346.89C265.161 346.887 251.148 350.743 233.685 362.191C221.532 370.158 201.11 390.456 189.374 406.232C174.329 426.455 155.837 458.779 143.721 486.033C135.712 504.047 129.771 519.393 130.523 520.122C130.938 520.525 141.403 526.217 153.778 532.771C202.491 558.571 207.769 561.196 208.173 559.829C208.388 559.098 209.102 554.675 209.758 550C211.424 538.132 217.804 513.41 222.276 501.5C236.598 463.35 259.056 436.836 286.283 425.934C294.015 422.838 294.587 422.759 305.267 423.305C314.745 423.79 330.828 426.717 332.344 428.232C332.613 428.502 331.498 432.722 329.866 437.611C310.311 496.185 324.68 579.474 364.726 639.674C374.712 654.686 386.83 668.314 399.209 678.453L408.919 686.406L401.098 690.373C367.266 707.536 344.486 714.308 320.778 714.252C270.001 714.13 220.981 684.281 177.935 627.273C170.302 617.164 158.191 598.323 153.654 589.499C149.753 581.911 150.984 582.036 135.778 587.694C97.9486 601.771 59.5206 629.433 34.6346 660.5C26.2106 671.017 16.3486 686.239 10.3396 698C5.16461 708.129 -0.488384 721.068 0.0336156 721.59C0.173616 721.729 5.23461 717.564 11.2826 712.334C38.4216 688.865 61.3846 679.157 82.7396 682.128C96.9646 684.106 106.737 689.503 122.278 703.963C188.451 765.534 250.632 802.627 306.685 813.967C372.771 827.337 436.922 803.098 541.447 725.263C553.089 716.593 575.814 699.529 591.947 687.343C636.946 653.351 657.808 640.319 675.778 634.976C697.371 628.556 735.492 638.975 766.778 659.848C781.956 669.974 792.459 678.708 807.852 694C831.966 717.957 853.242 745.64 874.419 780.615C875.527 782.444 875.69 782.433 879.93 780.238C886.99 776.583 911.823 760.851 923.491 752.641C987.515 707.594 1022.55 664.34 1027.29 624.487L1028 618.5L1023.14 623.052C1020.46 625.556 1013.99 631.631 1008.75 636.552C983.665 660.102 965.112 669.543 941.778 670.632L931.278 671.122L918.278 655.894C911.128 647.519 896.602 631.781 885.998 620.921C813.956 547.142 751.956 511.754 704.052 517.071C664.31 521.481 621.751 542.603 544.555 596.225L527.832 607.842L524.427 603.171C503.748 574.809 488.757 539.828 481.29 502.515C478.499 488.564 476.436 474.009 477.149 473.296C477.421 473.024 484.986 474.389 493.961 476.33C523.03 482.617 530.805 483.498 556.778 483.443C578.86 483.396 580.856 483.236 589.852 480.799C608.382 475.778 621.714 468.953 640.338 454.955C651.776 446.358 672.847 426.224 685.514 411.787C707.665 386.543 735.43 347.489 755.746 313C761.416 303.375 767.124 293.813 768.43 291.75L770.806 288H807.792H844.778V275V262H712.778H580.778V275Z" fill="#EB5757"/>
</svg>
